# xmcd
#
# Track frame offsets:
#	150
#	11375
#	22795
#	36506
#	49863
#	61045
#	72350
#	84002
#	95746
#	109028
#	120835
#	132777
#	143048
#	154441
#	166345
#	176350
#	189506
#	200883
#	212230
#	223785
#	237371
#	250076
#	259859
#	271163
#	285405
#	297605
#	310353
#	322934
#	334341
#
# Disc length: 4609 seconds
#
# Revision: 1
# Processed by: cddbd v1.5.2PL0 Copyright (c) Steve Scherf et al.
# Submitted via: EZCDAudioConverter 9.0.6.1
#
DISCID=a811ff1d
DTITLE=Ernest Tubb - Another Story [CD5]
DYEAR=1999
DGENRE=Traditional Country
TTITLE0=Pearly May's Place
TTITLE1=When Ole Goin' Gets A Goin'
TTITLE2=Teach My Daddy How To Pray
TTITLE3=One Sweet Hello
TTITLE4=Don't Back A Man Up In A Corner
TTITLE5=Commercial Affection
TTITLE6=The Key's In The Mailbox
TTITLE7=She Goes Walking Through My Mind
TTITLE8=Help Me Make It Through The Night
TTITLE9=Shenandoah Waltz
TTITLE10=As Long As There's A Sunday
TTITLE11=Sometimes You Just Can't Win
TTITLE12=Touching Home
TTITLE13=Look Twice Before You Go
TTITLE14=I've Been Walkin'
TTITLE15=Say Something Nice To Sarah
TTITLE16=The Road Is Closed
TTITLE17=Honky Tonks And You
TTITLE18=Ninety Nine Years
TTITLE19=It's Four In The Morning
TTITLE20=Heataches By The Number
TTITLE21=I Care No More
TTITLE22=In This Corner
TTITLE23=Good Hearted Woman
TTITLE24=Baby It's So Hard To Be Good
TTITLE25=It's Not Love (But It's Not Bad)
TTITLE26=I Don't Believe I'll Fall In Love Today
TTITLE27=Bubbles In My Beer
TTITLE28=Hillbilly Waltz
EXTD=
EXTT0=
EXTT1=
EXTT2=
EXTT3=
EXTT4=
EXTT5=
EXTT6=
EXTT7=
EXTT8=
EXTT9=
EXTT10=
EXTT11=
EXTT12=
EXTT13=
EXTT14=
EXTT15=
EXTT16=
EXTT17=
EXTT18=
EXTT19=
EXTT20=
EXTT21=
EXTT22=
EXTT23=
EXTT24=
EXTT25=
EXTT26=
EXTT27=
EXTT28=
PLAYORDER=
